<?xml version="1.0" standalone="no"?>
<!DOCTYPE svg PUBLIC "-//W3C//DTD SVG 20010904//EN"
 "http://www.w3.org/TR/2001/REC-SVG-20010904/DTD/svg10.dtd">
<svg version="1.0" xmlns="http://www.w3.org/2000/svg"
 width="500.000000pt" height="500.000000pt" viewBox="0 0 500.000000 500.000000"
 preserveAspectRatio="xMidYMid meet">
<metadata>
Created by potrace 1.14, written by Peter Selinger 2001-2017
</metadata>
<g transform="translate(0.000000,500.000000) scale(0.100000,-0.100000)"
fill="#000000" stroke="none">
<path d="M2417 4394 c-1 -2 -29 -4 -62 -5 -33 -2 -64 -5 -70 -8 -19 -10 -35
-9 -35 2 0 8 -3 8 -8 2 -4 -5 -11 -11 -17 -12 -5 0 -28 -4 -50 -7 -22 -4 -69
-14 -105 -22 -36 -9 -72 -17 -80 -18 -9 -1 -20 -5 -25 -8 -6 -3 -28 -11 -50
-17 -76 -24 -200 -74 -219 -90 -10 -9 -20 -15 -22 -13 -14 9 -244 -130 -343
-207 -41 -32 -265 -253 -306 -302 -16 -19 -52 -69 -80 -110 -27 -41 -52 -76
-55 -79 -3 -3 -21 -34 -39 -70 -19 -36 -42 -78 -51 -95 -25 -46 -91 -213 -105
-265 -1 -3 -4 -12 -7 -20 -21 -57 -25 -90 -14 -111 15 -31 61 -34 74 -5 12 24
24 56 27 71 11 45 61 178 94 246 65 138 161 298 183 307 4 2 8 10 8 17 0 7 3
15 8 17 4 2 32 32 62 68 116 137 259 262 410 358 36 23 72 47 80 54 8 7 15 11
15 9 0 -2 45 18 100 44 55 26 106 48 113 48 6 0 12 4 12 9 0 4 3 7 8 6 4 -1
36 8 72 19 56 19 133 41 165 47 6 1 24 5 40 9 98 22 200 31 333 32 61 0 112 4
112 9 0 5 6 4 13 -1 6 -6 35 -11 64 -12 29 -1 62 -4 75 -7 13 -3 39 -7 58 -9
60 -8 77 -12 183 -40 9 -3 25 -7 35 -9 10 -2 34 -11 53 -18 18 -8 36 -15 39
-16 3 0 18 -5 33 -11 16 -6 30 -11 32 -11 2 0 34 -14 72 -32 37 -18 71 -31 76
-30 4 1 7 -1 7 -6 0 -4 15 -13 33 -21 32 -14 212 -131 256 -167 90 -72 188
-168 261 -254 30 -36 58 -67 61 -70 9 -8 85 -122 107 -161 75 -132 91 -160 92
-164 1 -6 9 -30 31 -87 10 -27 17 -48 15 -48 -2 0 2 -21 10 -46 7 -26 11 -50
8 -55 -3 -5 -1 -9 3 -9 5 0 10 -19 10 -42 1 -24 4 -73 6 -110 2 -39 0 -68 -6
-68 -5 0 -4 -6 2 -13 6 -8 8 -17 4 -21 -4 -3 -8 -19 -10 -34 -1 -15 -4 -34 -6
-42 -3 -8 -8 -29 -12 -46 l-7 -30 -251 -1 c-212 -1 -322 -5 -322 -13 0 -1 -19
-3 -43 -5 -23 -2 -59 -9 -80 -14 -20 -6 -42 -11 -47 -11 -6 0 -11 50 -12 128
-1 70 -4 134 -6 142 -2 8 -8 34 -12 58 -4 23 -12 42 -18 42 -6 0 -7 3 -4 7 4
3 2 12 -4 20 -6 7 -8 13 -5 13 14 0 -59 97 -107 143 -53 50 -141 97 -218 115
-78 19 -277 -1 -295 -29 -3 -5 -12 -9 -20 -9 -22 0 -110 -68 -180 -139 -34
-33 -65 -61 -70 -61 -5 0 -40 34 -77 75 -38 41 -75 75 -82 75 -8 0 -18 8 -24
18 -5 9 -13 17 -18 16 -15 -1 -63 20 -63 29 0 4 -3 6 -8 4 -4 -3 -30 1 -57 8
-47 12 -176 13 -220 2 -103 -27 -200 -84 -254 -152 -30 -38 -85 -128 -89 -147
-1 -5 -2 -9 -3 -10 -1 -4 -5 -24 -14 -68 -4 -19 -8 -96 -8 -170 l-2 -135 -40
2 c-66 2 -99 6 -110 12 -5 3 -21 7 -35 9 -14 1 -32 5 -40 9 -8 3 -20 7 -26 8
-24 6 -140 49 -149 56 -20 15 -139 21 -185 9 -25 -6 -50 -12 -56 -13 -7 -2
-19 -9 -28 -16 -9 -7 -16 -10 -16 -5 0 7 -90 -84 -117 -119 -9 -12 -24 -15
-50 -11 -21 2 -60 6 -88 9 -27 2 -79 7 -115 11 -36 3 -80 7 -97 7 -18 0 -33 3
-33 6 0 3 -15 6 -33 7 -17 0 -69 4 -115 8 -60 6 -87 5 -97 -4 -36 -30 0 -84
55 -86 17 -1 31 -3 33 -4 3 -3 57 -9 110 -11 26 -1 47 -4 47 -8 0 -3 27 -6 60
-6 33 0 60 -2 60 -5 0 -3 28 -6 63 -8 34 -1 76 -4 92 -7 17 -2 38 -4 48 -4 10
-1 15 -5 12 -11 -12 -19 -23 -82 -30 -170 -8 -91 -4 -220 6 -220 4 0 5 -10 5
-22 -1 -13 0 -27 3 -33 3 -5 6 -16 7 -25 3 -19 17 -69 39 -140 37 -117 198
-388 292 -492 21 -22 48 -52 60 -66 13 -14 23 -29 23 -33 0 -5 4 -9 8 -9 5 0
38 -28 74 -62 35 -35 80 -74 98 -88 18 -14 45 -34 59 -46 63 -51 166 -113 286
-174 72 -36 135 -66 140 -67 6 -2 47 -16 93 -32 45 -16 106 -34 135 -41 28 -6
59 -14 67 -17 8 -3 22 -7 30 -8 8 -1 31 -5 50 -8 19 -3 58 -9 85 -13 67 -8 83
-12 94 -19 5 -3 13 -1 16 5 4 7 11 8 18 1 17 -14 219 -12 236 2 12 9 13 9 7 0
-8 -14 15 -18 28 -6 4 4 17 8 29 9 43 2 141 16 148 19 3 3 24 7 45 10 21 3 73
14 114 25 41 12 82 22 90 24 9 2 58 20 110 41 203 78 446 226 577 352 13 12
23 21 23 19 0 -7 146 149 192 204 82 99 247 368 249 407 0 5 6 17 13 28 16 26
61 148 58 158 -1 4 3 7 9 7 5 0 7 5 4 10 -4 6 -3 16 2 23 5 7 9 19 8 27 0 8 3
18 8 21 13 9 11 67 -3 84 -13 16 -75 22 -66 6 3 -5 -1 -14 -9 -21 -8 -7 -12
-16 -9 -21 3 -5 2 -15 -3 -21 -4 -7 -8 -17 -9 -23 -10 -61 -145 -375 -166
-383 -4 -2 -8 -7 -8 -12 0 -8 -59 -109 -70 -120 -3 -3 -25 -32 -50 -65 -75
-101 -167 -198 -265 -280 -33 -28 -68 -58 -79 -67 -11 -10 -23 -18 -28 -18 -4
0 -17 -8 -27 -18 -38 -33 -51 -43 -51 -35 0 4 -4 3 -8 -2 -10 -15 -134 -88
-149 -88 -7 0 -13 -3 -13 -6 0 -5 -56 -34 -70 -36 -3 -1 -20 -9 -37 -18 -18
-10 -33 -15 -33 -11 0 4 -6 2 -12 -3 -15 -12 -90 -38 -100 -35 -5 1 -8 -3 -8
-10 0 -6 -3 -9 -6 -5 -3 3 -23 -1 -44 -8 -21 -7 -41 -11 -44 -8 -3 4 -6 2 -6
-3 0 -6 -10 -11 -22 -11 -26 -2 -76 -12 -98 -20 -19 -7 -82 -14 -137 -16 -24
-1 -43 -5 -43 -8 0 -3 -78 -4 -172 -2 -211 5 -238 6 -238 14 0 4 -12 7 -27 7
-32 0 -91 10 -113 19 -8 3 -22 7 -30 8 -78 12 -318 97 -331 117 -3 6 -9 9 -13
9 -21 -4 -285 151 -306 179 -3 4 -12 11 -22 16 -19 10 -124 101 -171 149 -60
59 -113 121 -205 240 -57 75 -182 307 -182 340 0 7 -5 17 -11 20 -6 4 -8 13
-5 21 3 7 1 16 -4 19 -7 4 -14 32 -25 100 -1 6 -3 12 -4 15 -9 16 -20 217 -14
224 3 3 7 24 9 48 3 49 6 60 22 109 12 35 14 36 50 31 69 -10 527 -3 527 8 0
1 14 3 30 5 69 9 106 16 128 24 l23 9 -1 -110 c-1 -60 3 -112 7 -115 5 -2 4
-11 -2 -18 -8 -9 -8 -15 0 -20 6 -3 8 -10 5 -14 -14 -23 48 -172 93 -221 12
-14 25 -33 28 -42 3 -10 9 -18 14 -18 5 0 20 -11 34 -25 14 -14 29 -25 34 -25
5 0 15 -7 22 -15 7 -8 16 -12 21 -9 5 3 9 0 9 -5 0 -6 6 -11 13 -11 6 0 24 -6
39 -14 57 -30 166 -38 259 -20 97 20 182 68 265 151 40 40 77 73 81 73 4 0 42
-32 82 -71 69 -65 182 -134 237 -144 10 -2 19 -4 19 -5 0 -5 58 -10 113 -9 92
0 112 2 112 12 0 4 5 5 10 2 5 -3 16 -3 23 2 6 4 14 8 17 8 3 0 31 13 63 29
129 63 245 225 250 349 0 15 3 27 6 27 3 0 6 57 5 128 0 70 1 132 3 139 3 7
23 10 56 8 29 -2 52 -4 52 -5 0 -1 25 -6 75 -14 25 -4 49 -11 85 -26 143 -58
164 -63 255 -63 115 0 179 35 272 151 15 18 26 21 60 18 24 -3 43 -5 43 -6 0
0 29 -3 65 -6 68 -5 98 -8 215 -20 39 -4 80 -7 93 -7 12 1 22 -2 22 -6 0 -3
27 -7 59 -9 43 -2 64 2 75 14 20 20 20 48 0 65 -18 15 -23 16 -109 25 -65 6
-90 9 -175 18 -76 9 -164 16 -235 20 -33 2 -59 6 -58 10 8 30 25 125 28 156 2
21 6 43 9 49 4 5 2 12 -4 16 -6 4 -7 11 -3 18 8 13 11 57 3 57 -3 0 -6 19 -6
43 -1 49 -11 111 -24 155 -5 18 -6 32 -2 32 3 0 1 5 -6 12 -7 7 -12 24 -12 38
0 14 -5 31 -11 37 -6 6 -12 17 -13 24 -3 13 -16 48 -33 89 -3 8 -5 18 -5 23 1
4 -2 7 -7 7 -5 0 -14 12 -20 28 -36 93 -176 286 -306 421 -86 89 -225 207
-310 263 -114 74 -176 109 -197 112 -3 1 -10 5 -15 9 -6 7 -60 34 -83 42 -3 1
-18 7 -35 14 -43 19 -225 81 -249 86 -12 2 -21 4 -21 5 0 1 -11 3 -25 5 -14 1
-44 7 -67 14 -23 6 -45 11 -50 10 -4 -1 -10 0 -13 1 -7 3 -55 9 -120 15 -60 6
-269 13 -273 9z m607 -1248 c46 -8 126 -39 126 -48 0 -4 5 -8 11 -8 34 0 141
-139 151 -195 1 -11 7 -23 12 -27 5 -3 11 -77 12 -163 l3 -157 -42 5 c-53 7
-95 14 -127 22 -14 3 -38 9 -55 11 -16 3 -34 10 -40 15 -5 5 -17 9 -27 9 -10
0 -26 4 -36 9 -9 5 -52 25 -95 46 -87 42 -217 123 -217 136 0 5 -6 9 -12 9
-17 1 -118 94 -118 109 0 21 158 168 207 191 54 26 51 26 113 38 45 8 80 8
134 -2z m-884 -10 c29 -8 61 -21 108 -44 44 -21 162 -142 162 -167 0 -15 -154
-125 -257 -183 -51 -29 -94 -52 -97 -52 -2 0 -25 -10 -52 -22 -27 -12 -51 -23
-54 -23 -3 -1 -14 -5 -25 -9 -57 -22 -96 -36 -103 -37 -9 -2 -17 -4 -71 -19
-87 -24 -80 -35 -76 118 3 140 9 188 26 208 5 6 6 14 2 17 -3 4 -1 7 5 7 7 0
12 6 12 13 0 13 36 61 77 103 33 33 142 84 193 90 25 3 46 6 47 7 4 5 80 0
103 -7z m371 -303 c98 -110 340 -259 517 -319 45 -15 79 -30 75 -34 -5 -4 -30
-15 -58 -25 -71 -25 -179 -77 -187 -89 -4 -6 -8 -7 -8 -3 0 5 -12 0 -27 -11
-16 -10 -35 -22 -43 -25 -32 -14 -209 -147 -253 -189 -29 -29 -47 -35 -47 -18
0 6 -7 10 -15 10 -8 0 -15 4 -15 8 0 11 -172 136 -261 190 -62 38 -230 121
-253 127 -6 1 -24 8 -41 15 -16 7 -38 12 -47 12 -10 0 -18 1 -18 4 0 6 68 36
89 40 41 8 299 128 311 145 3 4 23 16 45 28 22 12 78 50 125 86 47 35 87 64
90 65 3 0 13 -8 21 -17z m-1346 -292 c33 -13 79 -29 103 -38 23 -8 42 -19 42
-23 0 -4 -94 -8 -210 -9 -120 0 -210 3 -210 8 0 12 26 38 53 53 70 39 133 42
222 9z m2627 -25 c13 8 248 12 248 4 0 -3 15 -5 34 -4 55 3 61 -10 19 -39 -21
-14 -51 -31 -68 -37 -35 -13 -134 -11 -152 3 -7 5 -13 7 -13 4 0 -3 -25 5 -56
19 -30 13 -66 25 -79 26 -14 1 -26 7 -29 14 -2 6 5 10 17 10 12 -1 31 1 42 5
11 3 22 3 23 -2 2 -5 8 -6 14 -3z m-2059 -93 c18 -3 35 -10 39 -16 4 -7 8 -9
8 -5 0 19 320 -121 328 -143 2 -5 8 -9 14 -9 15 0 160 -97 237 -159 l63 -51
-63 -63 c-65 -64 -120 -107 -142 -111 -7 -1 -17 -5 -23 -8 -33 -21 -179 -31
-227 -16 -104 33 -192 102 -240 187 -17 31 -32 60 -33 66 -1 5 -5 24 -9 40 -9
35 -15 286 -8 298 2 4 9 5 14 1 6 -3 25 -8 42 -11z m1603 -137 c-1 -78 -8
-150 -13 -161 -6 -11 -12 -24 -12 -30 -3 -28 -17 -55 -55 -107 -45 -61 -126
-119 -197 -139 -53 -15 -155 -19 -187 -7 -12 4 -34 10 -48 12 -36 7 -106 49
-151 92 -21 20 -53 50 -72 66 l-35 31 50 43 c71 63 72 64 84 64 5 0 10 4 10 8
0 13 184 126 270 166 80 37 237 92 292 101 18 3 34 8 36 10 2 2 10 1 18 -2 11
-4 13 -33 10 -147z"/>
<path d="M633 2815 c-45 -20 -66 -50 -67 -98 0 -47 23 -94 52 -103 9 -3 24 -9
32 -13 8 -4 24 -6 35 -4 11 2 26 5 32 5 19 2 78 70 77 88 -1 8 -2 27 -3 42 -1
28 -50 87 -73 89 -7 0 -23 2 -35 3 -12 1 -35 -3 -50 -9z"/>
<path d="M4294 2400 c-54 -21 -80 -100 -52 -153 11 -21 45 -56 57 -58 69 -15
121 8 149 66 12 25 17 45 11 45 -5 0 -7 5 -4 10 10 16 -34 80 -62 91 -29 11
-71 11 -99 -1z"/>
</g>
</svg>
