<svg xmlns="http://www.w3.org/2000/svg" viewBox="0 0 519.51 499.98"><path d="M516.41 203.62c-21.89-2.53-43.35-4.86-63.47-6.33 8.8-23.32 5.46-56.85-8.5-84.44-.12-.25-2.04-3.95-2.04-3.95-16.94-31.33-41.86-57.89-72.08-76.98C337.27 11.04 299.03 0 259.75 0 165.28 0 82.76 63.79 59.06 155.11c-.48 1.88.64 3.79 2.51 4.27.3.08.59.11.88.11 1.56 0 2.98-1.04 3.39-2.62C88.73 68.63 168.47 7 259.75 7c37.96 0 74.9 10.67 106.83 30.84 31.02 19.59 56.09 47.1 72.47 79.86.03.06.46 1.01.49 1.07 12.24 25.14 14.91 57.15 6.07 78.02-34.44-2.19-64.52-1.55-85.5 5.32V177.7c0-9.78-2.63-19.26-7.59-27.42-8.33-13.69-22.36-22.41-38.5-23.93-16.52-1.55-32.11 4.83-43.44 16.87-4.19 4.45-8.33 8.53-12.43 12.28-2.67-2.9-5.28-5.93-7.83-9.09-13.67-16.89-35.86-23.34-56.55-16.42-20.45 6.84-33.61 24.39-34.34 45.81-.02.63-.03 1.26-.03 1.9v26.27c-19.9-.39-30.83-4.73-39.68-8.23-8.46-3.35-15.76-6.25-26.81-3.96-9.78 2.02-17.78 8.48-23.29 18.75-20.7-1.45-42.96-3.87-65.72-6.5-1.92-.23-3.65 1.15-3.88 3.07a3.506 3.506 0 0 0 3.08 3.88c21.89 2.54 43.34 4.86 63.46 6.34-7.84 20.79-6.04 49.69 4.33 75.26.52 1.3 1.07 2.59 1.64 3.86.06.16.14.32.22.48 1.42 2.97 2.9 5.89 4.47 8.77 16.36 30.35 40.05 56.17 69.11 75.2 33.72 22.08 72.94 33.75 113.42 33.75 94.76 0 177.34-64.02 200.84-155.69.48-1.87-.65-3.78-2.52-4.26s-3.78.65-4.26 2.52c-22.7 88.57-102.5 150.43-194.06 150.43-39.11 0-77.01-11.28-109.58-32.61-30.75-20.13-55.27-48.12-71.11-81.12-.05-.11-.11-.23-.16-.35-11.47-25.69-13.58-55.5-5-75.74 34.44 2.19 64.51 1.54 85.5-5.32v24.53c0 18.06 8.62 34.12 23.64 44.05a49.481 49.481 0 0 0 27.35 8.22c13.97 0 27.9-5.83 38.17-17.02 3.32-3.62 6.67-7.08 10.06-10.36 4.32 3.82 8.66 7.87 13 12.12 9.84 9.64 23.18 15.05 36.93 15.05.86 0 1.73-.02 2.6-.07 14.52-.72 27.6-7.19 36.82-18.21 7.94-9.49 12.14-21.17 12.14-33.78v-26.4c19.91.41 30.81 4.73 39.67 8.24 6.36 2.51 12.06 4.77 19.18 4.77 2.36 0 4.88-.25 7.63-.81 9.78-2.03 17.78-8.49 23.29-18.76 20.7 1.46 42.97 3.87 65.72 6.51 1.92.23 3.66-1.16 3.88-3.08a3.504 3.504 0 0 0-3.07-3.88zm-438.96 7.42c3.52-5.45 8.89-10.75 16.88-12.41 9-1.86 14.79.44 22.82 3.61 6.43 2.55 13.89 5.5 24.75 7.25-17.71 2.92-39.83 3.01-64.45 1.55zm88.95-33.34c0-.56.01-1.11.03-1.67.75-22.01 15.76-34.78 29.56-39.4 4.45-1.49 9.48-2.39 14.74-2.39 11.6 0 24.29 4.39 34.15 16.58 2.62 3.24 5.3 6.36 8.03 9.34-35.89 30.84-67.44 37.01-86.51 42.46V177.7zm77 89.84c-14.91 16.24-38.67 19.48-56.5 7.7-13.03-8.61-20.5-22.54-20.5-38.21v-25.46c17.07 3.6 33.9 10.2 50.69 19.91 12.07 6.99 24.12 15.58 36.22 25.83-3.34 3.25-6.64 6.67-9.91 10.23zm15-15.08c-26.56-22.61-52.95-37.5-79.92-45.11 29.97-7.97 56.58-22.01 79.45-41.92 22.51 22.81 48.43 37.14 77.41 42.81-27.81 7.69-53.23 22.3-76.94 44.22zm94.71-15.43c0 10.95-3.64 21.07-10.51 29.29-7.95 9.51-19.25 15.09-31.8 15.71-12.71.63-25.21-4.1-34.28-12.99-4.27-4.18-8.54-8.17-12.8-11.96 27.17-24.94 56.61-39.96 89.39-45.65v25.6zm0-33.44c-34.15-2.61-64.32-16.99-89.97-42.84 4.35-4.06 8.56-8.34 12.63-12.84 9.59-10.62 23.29-15.93 37.6-14.59 13.91 1.31 26 8.82 33.17 20.6 4.3 7.06 6.57 15.28 6.57 23.78v25.89zm72.06 12.38c-8.99 1.86-14.79-.43-22.81-3.61-6.44-2.55-13.89-5.5-24.75-7.24 17.71-2.93 39.82-3.01 64.45-1.56-3.52 5.45-8.9 10.76-16.89 12.41z" fill="#d66841"/><circle cx="463.31" cy="234.3" r="10.89" fill="#da3a24"/><circle cx="58.09" cy="179.87" r="10.89" fill="#da3a24"/><path d="M199.52 333.44l-1.51 1.17-7.41-9.49-2.39 2.44v6.99h-1.92v-18.62h1.92v8.89l8.63-8.87 1.35 1.35-6.24 6.42 7.57 9.7zm16.98 1.12h-1.98v-18.67h1.98v18.67zm22.59-8.4l-4.26-.03v8.4h-1.87v-18.62l6.37.03c2.78 0 4.89 2.42 4.89 5.12s-2.29 5.12-5.12 5.1zm.1-8.37h-4.37v6.53h4.37c1.72 0 3.17-1.56 3.17-3.25s-1.38-3.28-3.17-3.28zm26.16 8.37l-4.26-.03v8.4h-1.87v-18.62l6.37.03c2.78 0 4.89 2.42 4.89 5.12s-2.29 5.12-5.12 5.1zm.1-8.37h-4.37v6.53h4.37c1.72 0 3.17-1.56 3.17-3.25s-1.38-3.28-3.17-3.28zm27.07 17.02c-5.12 0-7.98-4.89-7.98-9.54s2.91-9.54 7.98-9.54 7.98 4.89 7.98 9.54-2.83 9.54-7.98 9.54zm0-17.08c-3.87 0-6.01 4.11-6.01 7.54s2.11 7.57 6.01 7.57 6.01-4.13 6.01-7.57-2.13-7.54-6.01-7.54zm37.57 10.3c0 4.16-3.48 6.79-7.44 6.79s-7.41-2.57-7.41-6.79v-12.19h2v12.12c0 2.94 2.63 4.89 5.41 4.89s5.43-1.95 5.43-4.89v-12.12h2v12.19z" fill="#da3a24"/><g><path d="M149.7 462.67c-1.63.14-7.38.64-8.65.92-.78.14-4.11 1.7-4.82 1.7-.64 0-.92-.78-.92-1.21 0-.71.43-2.84 1.28-3.55.64.14.78.21 1.92.21 1.28 0 9.01-.85 10.71-.92-.35-1.99-.99-6.1-1.92-8.8-.21-.57-1.28-2.77-1.28-3.26 0-1.28 2.98-2.7 3.97-2.7 1.21 0 1.21.64 1.28 2.34.07 1.77.35 6.53 1.14 12.13 2.06-.21 9.15-.85 10.71-1.13 1.92-.35 5.6-1.06 5.68-1.06.14 0 .21.07.21.21s-1.13 3.05-2.2 3.76c-.92.57-1.35.57-5.32.71-5.32.14-5.89.14-8.58.43l2.13 11.28c7.73-.85 15.11-1.63 18.51-2.2.78-.14 4.04-.92 4.75-.92.43 0 .5.21.5.5 0 .92-2.13 5.11-4.33 5.11-.92 0-5.32-.28-6.24-.28-5.25 0-10.64.5-12.63.64.99 5.11 1.99 10.14 3.26 15.04 1.42 5.39 1.56 5.96 1.56 6.53 0 .78-1.21.99-1.84.99-2.06 0-4.4-.14-4.4-1.91 0-5.89-.21-7.38-2.27-20.36-3.62.28-14.4 1.63-18.02 2.55-.85.21-4.33 1.63-5.11 1.63-.5 0-1.13-.21-1.13-1.21 0-.71.43-3.76 1.49-4.75 2.84.57 3.19.64 3.83.64 3.12 0 14.97-1.28 18.51-1.63-.14-.99-1.56-9.93-1.77-11.42zm54.63 2.41c1.92 0 7.94 8.94 7.94 11.78 0 .5-.42.99-.99.99-.78 0-1.21-.5-5.11-4.96-.85-.99-3.55-3.76-4.33-4.04-.78-.35-.92-.35-.92-.78 0-.85 2.48-2.98 3.41-2.98zm30.29-.71c0-.92 1.99-1.63 3.33-1.63.5 0 1.35.07 1.35 1.21 0 .5-.85 2.48-.92 2.98-5.11 26.32-24.83 31.43-27.03 31.43-1.77 0-5.67-1.21-5.67-2.2 0-.64.57-.78 5.39-2.27 6.31-1.99 14.75-6.81 19.37-14.4 3.19-5.25 4.61-12.77 4.61-13.41 0-.28-.43-1.49-.43-1.7zm-19.22-2.62c2.2 0 8.02 9.15 8.02 11.35 0 .57-.28 1.35-.92 1.35s-1.14-.57-5.6-5.32c-1.13-1.21-3.05-3.19-3.97-3.62-.71-.28-.92-.35-.92-.78 0-.92 2.62-2.98 3.41-2.98zm60.58 22.63c-2.91 3.62-7.66 6.67-9.51 6.67-1.42 0-4.61-1.84-4.61-2.62 0-.43 4.19-1.92 4.97-2.27 7.17-3.55 10.14-9.22 10.78-11.78.5-1.99.57-2.2 1.77-2.2.92 0 1.42.64 1.42 1.49 0 2.13-2.48 7.73-4.82 10.71zm15.75-22.84c2.77-.14 14.75-.35 17.17-.5.99-.07 5.75-.5 6.31-.5.35 0 .64.07.64.5 0 1.06-2.41 4.82-4.04 4.82-.99 0-5.18-.99-6.03-1.13-4.19-.5-9.79-.5-14.05-.43 0 1.77-.14 9.58-.14 11.21 0 3.12.57 17.02.57 19.86 0 .85 0 4.61-2.34 4.61-2.13 0-3.05-3.19-3.05-3.83 0-.43.43-2.48.5-2.91.64-9.01 1.28-17.88.99-28.94-5.75.14-9.29.21-14.4 1.28-1.06.21-5.67 1.63-6.6 1.63-.5 0-1.21-.07-1.21-1.13 0-.99 1.13-3.62 2.34-4.61 1.56.64 2.27.78 4.68.78 4.47 0 8.87-.21 15.11-.57 0-1.42-.21-7.95-.21-9.29 0-1.06 0-1.35-.21-1.7-.14-.28-.92-1.63-.92-1.84 0-1.7 2.27-3.26 4.11-3.26 1.42 0 1.77 1.49 1.77 2.13s-.5 3.12-.57 3.69c-.28 2.27-.43 5.53-.43 7.87v2.27zm9.43 12.2c0-1.56.85-1.56 1.42-1.56 1.35 0 1.42.5 1.49 1.7.14 2.55 6.38 13.2 13.05 13.2.35 0 2.2-.43 2.55-.43.28 0 .28.07.28.28 0 1.7-2.77 5.75-6.17 5.75-5.11 0-12.63-14.54-12.63-18.94zm9.01-17.81c-3.33 0-5.82-2.62-5.82-5.75s2.55-5.75 5.82-5.75 5.89 2.7 5.89 5.75-2.48 5.75-5.89 5.75zm0-9.93c-2.41 0-4.26 1.92-4.26 4.18s1.77 4.26 4.26 4.26c2.62 0 4.33-2.06 4.33-4.26s-1.77-4.18-4.33-4.18zm57.12 12.44c-.14-1.42-1.29-7.58-1.29-8.87 0-1.83 1.83-2.57 3.05-2.57 2.5 0 2.5 2.57 2.5 2.98 0 .61-.07.95-.61 4.4-.13.95-.13 1.22-.41 4.06 3.45-.07 10.29-.13 13.61-.2.88-.68 1.9-1.42 2.91-1.42s1.22.68 1.22 1.35c0 .47-.07 12.19-5.82 22.01-4.74 8.13-14.49 16.32-21.2 16.32-1.96 0-6.43-2.37-6.43-3.66 0-.14 6.37-1.63 7.52-2.03 17.4-5.89 21.6-19.77 22.01-29.46-14.02 0-23.97.07-29.25.14-.14 1.76-.47 9.75-.68 11.31-.27 1.69-.68 2.24-1.42 2.24s-1.15-.34-1.62-2.3c-1.29-5.76-1.62-12.93-1.62-13.14 0-1.62 1.29-2.98 2.91-2.98.95 0 2.3.54 2.57 1.76 5.96.14 6.57.14 12.05.07z" fill="#da3a24"/></g></svg>